# xmcd
#
# Track frame offsets:
#	150
#	12208
#	26127
#	38659
#	51844
#	61785
#	73728
#	88116
#	101807
#	114141
#	127959
#	141503
#
# Disc length: 2061 seconds
# Revision: 0
# Processed by: cddbd v1.5.2PL0 Copyright (c) Steve Scherf et al.
# Submitted via: dBpowerAMP V12.0
#
DISCID=a1080b0c
DTITLE=Duelo - Corridos Y Canciones Por Una Mujer Bonita
DYEAR=2010
DGENRE=Latin
TTITLE0=Por Una Mujer Bonita (El Socio Mayoritario)
TTITLE1=El Caballo Bayo
TTITLE2=Los Mil Diamantes
TTITLE3=Adelaida
TTITLE4=Trampa Tendida
TTITLE5=Se Esta Cayendo El Jacal
TTITLE6=Lupe El Zorro
TTITLE7=Florita Del Alma
TTITLE8=El Cumpleanos De Kandy
TTITLE9=El Fuereno
TTITLE10=La Voz De Mi Madre
TTITLE11=El Barrilito De Agua
EXTD=
EXTT0=
EXTT1=
EXTT2=
EXTT3=
EXTT4=
EXTT5=
EXTT6=
EXTT7=
EXTT8=
EXTT9=
EXTT10=
EXTT11=
PLAYORDER=
